<svg xmlns="http://www.w3.org/2000/svg" viewBox="0 0 512 512"><!--!Font Awesome Free 6.7.2 by @fontawesome - https://fontawesome.com License - https://fontawesome.com/license/free Copyright 2025 Fonticons, Inc.-->
  <linearGradient id="gradientLine">
        <stop offset="0" stop-color="#1334a0"/>
        <stop offset="0.25" stop-color="#1b2f70"/>
          <stop offset="0.50" stop-color="#6b8edb"/>
        <stop offset="0.75" stop-color="#3459a5"/>
        <stop offset="1" stop-color="#0d1738"/>
      </linearGradient>

<path d="M35.2 171.1C-11.7 217.1-11.7 294 35.2 340.9L171.1 476.8C217.1 523.7 294 523.7 340.9 476.8L476.8 340.9C523.7 294 523.7 217.1 476.8 171.1L340.9 35.2C294-11.7 217.1-11.7 171.1 35.2L35.2 171.1zM315.5 315.5C282.6 348.3 229.4 348.3 196.6 315.5C163.7 282.6 163.7 229.4 196.6 196.6C229.4 163.7 282.6 163.7 315.5 196.6C348.3 229.4 348.3 282.6 315.5 315.5z"
 fill="url(#gradientLine)"/>
</svg>